Coordinates
version=1
nRows=11
nColumns=63
inDegrees=yes

Units are S.I. units (second, meters, Newtons, ...)
If the header above contains a line with 'inDegrees', this indicates whether rotational values are in degrees (yes) or radians (no).

endheader
time	pelvis_tilt	pelvis_list	pelvis_rotation	pelvis_tx	pelvis_ty	pelvis_tz	hip_flexion_r	hip_adduction_r	hip_rotation_r	knee_angle_r	knee_angle_r_beta	ankle_angle_r	subtalar_angle_r	mtp_angle_r	hip_flexion_l	hip_adduction_l	hip_rotation_l	knee_angle_l	knee_angle_l_beta	ankle_angle_l	subtalar_angle_l	mtp_angle_l	L5_S1_Flex_Ext	L5_S1_Lat_Bending	L5_S1_axial_rotation	L4_L5_Flex_Ext	L4_L5_Lat_Bending	L4_L5_axial_rotation	L3_L4_Flex_Ext	L3_L4_Lat_Bending	L3_L4_axial_rotation	L2_L3_Flex_Ext	L2_L3_Lat_Bending	L2_L3_axial_rotation	L1_L2_Flex_Ext	L1_L2_Lat_Bending	L1_L2_axial_rotation	L1_T12_Flex_Ext	L1_T12_Lat_Bending	L1_T12_axial_rotation	Abs_r3	Abs_r2	Abs_r1	Abs_t1	Abs_t2	neck_flexion	neck_bending	neck_rotation	arm_flex_r	arm_add_r	arm_rot_r	elbow_flex_r	pro_sup_r	wrist_flex_r	wrist_dev_r	arm_flex_l	arm_add_l	arm_rot_l	elbow_flex_l	pro_sup_l	wrist_flex_l	wrist_dev_l
      1.49152542	     -1.94275415	      0.04476720	     98.28126151	      0.18553125	      0.55906072	      0.94758753	    -12.98239756	      0.99107720	    -13.64532161	      1.42305151	      0.02483693	     28.02881136	      1.60846143	      0.00000000	    -10.17912981	     -1.50165216	     19.71028268	      0.37562221	      0.00655584	     23.79657603	    -10.11865899	      0.00000000	     -0.38477030	     -2.09111892	      2.90989071	     -0.71455693	     -2.78118817	      3.09175887	     -0.63213913	     -5.08434655	      3.09175887	     -0.43975398	     -5.08434655	      2.54615437	     -0.35729770	     -4.26420971	      2.36428620	     -0.21985775	     -3.23914321	      2.18241803	     -2.74837578	    -23.65515550	     16.18393914	      0.00000000	      0.00000000	     -5.20113681	     -9.45110425	     -3.19057386	     39.14436677	     10.99096116	     34.30076257	    147.26527817	     88.94940333	    -22.83342852	     13.18913179	     31.63331588	     -0.37777603	     22.12948517	    149.83595062	     86.81846032	    -22.47614864	    -11.35143915
      1.50847458	     -2.01129265	      0.07049519	     98.10132586	      0.18606270	      0.55923041	      0.94768244	    -12.97143117	      0.86423152	    -14.35458430	      1.46564046	      0.02558025	     28.49762085	      3.17576514	      0.00000000	    -10.17831038	     -1.41132449	     18.75061150	      0.37732139	      0.00658550	     24.23071610	     -9.17066329	      0.00000000	     -0.38578341	     -2.10516572	      2.95977303	     -0.71643837	     -2.79987040	      3.14475885	     -0.63380357	     -5.11849992	      3.14475885	     -0.44091186	     -5.11849992	      2.58980140	     -0.35823848	     -4.29285393	      2.40481559	     -0.22043664	     -3.26090169	      2.21982977	     -2.75561233	    -23.81405562	     16.46136967	      0.00000000	      0.00000000	     -5.21014098	     -9.21525663	     -3.50470345	     39.12183630	     10.91796468	     34.40717246	    147.13506476	     88.89031232	    -23.40600934	     12.30903271	     31.75838011	     -0.43184003	     22.08398297	    149.84173199	     86.81487620	    -22.62036728	    -11.89457437
      1.52542373	     -2.10619922	      0.20366552	     98.02288486	      0.18657718	      0.55940903	      0.94773377	    -13.13390847	      0.78152436	    -14.07448727	      1.42526754	      0.02487561	     28.67138069	      3.21199098	      0.00000000	    -10.29077628	     -1.33980117	     17.75569704	      0.36872088	      0.00643539	     24.78075578	     -7.94444495	      0.00000000	     -0.40246665	     -2.12216069	      3.01033588	     -0.74742082	     -2.82247371	      3.19848187	     -0.66121246	     -5.15982149	      3.19848187	     -0.45997914	     -5.15982149	      2.63404390	     -0.37373053	     -4.32751007	      2.44589790	     -0.22996945	     -3.28722690	      2.25775191	     -2.87477905	    -24.00630612	     16.74258507	      0.00000000	      0.00000000	     -5.20881835	     -9.13409937	     -4.05591961	     39.24046352	     10.83451918	     34.48652867	    147.15277831	     88.95012461	    -23.20699069	     11.87818445	     31.84553035	     -0.34186037	     21.41457208	    149.85070314	     86.76059089	    -21.45299696	    -12.23366343
      1.54237288	     -2.19062423	      0.31481965	     97.66174947	      0.18749892	      0.55950556	      0.94787364	    -13.23143154	      0.63970999	    -13.83820438	      1.46122279	      0.02550315	     28.86179684	      3.57360920	      0.00000000	    -10.40645684	     -1.22358211	     17.04144984	      0.36811874	      0.00642488	     25.02206471	     -7.57605926	      0.00000000	     -0.40600527	     -2.13772942	      3.09544235	     -0.75399239	     -2.84318013	      3.28890750	     -0.66702606	     -5.19767531	      3.28890750	     -0.46402343	     -5.19767531	      2.70851206	     -0.37701650	     -4.35925783	      2.51504691	     -0.23199141	     -3.31134287	      2.32158177	     -2.90005507	    -24.18242275	     17.21592174	      0.00000000	      0.00000000	     -4.98604876	     -9.20366843	     -4.28317086	     39.61875633	     10.70427230	     35.03261112	    147.32584815	     89.07994902	    -23.16079276	     11.88020015	     31.92503337	     -0.24995482	     20.91027283	    149.85857962	     86.71341674	    -20.96076874	    -13.07140398
      1.55932203	     -2.30191257	      0.47643181	     97.41832001	      0.18824295	      0.55953476	      0.94815396	    -13.41722180	      0.51049932	    -13.69175106	      1.49320742	      0.02606139	     28.96545515	      3.78735094	      0.00000000	    -10.58503937	     -1.10475510	     16.84322464	      0.36425798	      0.00635750	     24.92595300	     -7.72315435	      0.00000000	     -0.41677912	     -2.15454358	      3.13261162	     -0.77400050	     -2.86554296	      3.32839985	     -0.68472641	     -5.23855726	      3.32839985	     -0.47633685	     -5.23855726	      2.74103517	     -0.38702109	     -4.39354527	      2.54524694	     -0.23814759	     -3.33738800	      2.34945872	     -2.97701156	    -24.37262788	     17.42264605	      0.00000000	      0.00000000	     -4.77278745	     -9.30300129	     -4.40581738	     40.23500289	     10.48953030	     35.77603455	    147.52683750	     89.26121446	    -22.83605279	     11.91998553	     32.04858039	     -0.18657512	     20.59395487	    149.86528572	     86.65793415	    -20.92683443	    -13.54075627
      1.57627119	     -2.36190913	      0.74718184	     96.95261774	      0.18913930	      0.55955404	      0.94858510	    -13.68782334	      0.38904398	    -13.48350774	      1.57629775	      0.02751159	     29.04493741	      4.14733262	      0.00000000	    -10.91514614	     -0.99975500	     16.48537423	      0.36333142	      0.00634133	     24.57220201	     -8.02245334	      0.00000000	     -0.43226096	     -2.15618087	      3.15871117	     -0.80275182	     -2.86772056	      3.35613061	     -0.71016153	     -5.24253817	      3.35613061	     -0.49403105	     -5.24253817	      2.76387227	     -0.40139752	     -4.39688403	      2.56645282	     -0.24699391	     -3.33992417	      2.36903337	     -3.08759679	    -24.39114924	     17.56780389	      0.00000000	      0.00000000	     -4.47716236	     -9.76295554	     -4.09717770	     41.02085627	     10.31947476	     36.77761531	    147.70193135	     89.42106437	    -22.33560845	     12.17145278	     32.03768105	     -0.18108979	     20.24100890	    149.86727883	     86.46238460	    -20.97125170	    -13.73320899
      1.59322034	     -2.28040416	      1.09788226	     96.32679781	      0.18990135	      0.55952340	      0.94889480	    -13.98846811	      0.31593054	    -14.45966912	      1.80722916	      0.03154210	     29.47389079	      6.45000943	      0.00000000	    -11.36936291	     -0.99715438	     16.99279627	      0.35504009	      0.00619662	     23.83585880	     -9.72912453	      0.00000000	     -0.44454650	     -2.13088314	      3.17522690	     -0.82556730	     -2.83407458	      3.37367858	     -0.73034544	     -5.18102927	      3.37367858	     -0.50807219	     -5.18102927	      2.77832354	     -0.41280588	     -4.34529690	      2.57987186	     -0.25401387	     -3.30073799	      2.38142018	     -3.17535118	    -24.10497627	     17.65965947	      0.00000000	      0.00000000	     -4.16394847	    -10.39068133	     -3.38552524	     41.69360114	     10.29001367	     37.31563418	    148.09098733	     89.54966269	    -20.14936913	     14.05851372	     31.82042915	     -0.20001657	     19.91843922	    149.86413860	     86.13869985	    -20.98111636	    -13.94029425
      1.61016949	     -2.17961968	      1.38658412	     95.69571369	      0.19059177	      0.55945833	      0.94956101	    -14.19331474	      0.25150200	    -15.32769923	      2.06126243	      0.03597582	     29.76549609	      8.45691586	      0.00000000	    -11.73937008	     -0.98039937	     17.19181980	      0.35221355	      0.00614729	     23.14731795	    -11.10760998	      0.00000000	     -0.45400919	     -2.10312385	      3.15973491	     -0.84314046	     -2.79715472	      3.35721834	     -0.74589169	     -5.11353533	      3.35721834	     -0.51888710	     -5.11353533	      2.76476805	     -0.42159293	     -4.28869016	      2.56728462	     -0.25942085	     -3.25773885	      2.36980118	     -3.24294223	    -23.79095763	     17.57349766	      0.00000000	      0.00000000	     -3.84875361	    -11.11013951	     -2.57248227	     42.43154397	     10.29661584	     37.70640195	    148.41034840	     89.62668678	    -18.11878545	     15.98725547	     31.59250374	     -0.24805279	     19.76532967	    149.85977702	     86.04674305	    -21.56452655	    -13.91003192
      1.62711864	     -2.17536440	      1.53098590	     95.23326745	      0.19126822	      0.55935182	      0.95014228	    -14.29857290	      0.15068892	    -15.33013085	      2.22922001	      0.03890723	     29.83883709	      9.00807507	      0.00000000	    -11.94319393	     -0.90438344	     16.98052402	      0.35746941	      0.00623902	     22.80815997	    -11.45006522	      0.00000000	     -0.46308848	     -2.09167624	      3.15077721	     -0.86000161	     -2.78192940	      3.34770079	     -0.76080806	     -5.08570162	      3.34770079	     -0.52926382	     -5.08570162	      2.75693006	     -0.43002396	     -4.26534619	      2.56000648	     -0.26460876	     -3.24000650	      2.36308291	     -3.30779468	    -23.66145999	     17.52367762	      0.00000000	      0.00000000	     -3.49303194	    -11.72742118	     -1.92652358	     42.93330473	     10.24624080	     38.23992298	    148.52667774	     89.66402489	    -17.68110126	     16.66126721	     31.48631163	     -0.34413327	     19.59086475	    149.85727778	     85.86998246	    -21.89760513	    -13.54071752
      1.64406780	     -2.11353215	      1.53482699	     94.55590155	      0.19212472	      0.55924549	      0.95073806	    -14.15587764	     -0.02290656	    -16.90538356	      2.58525288	      0.04512117	     30.18633549	     11.83147363	      0.00000000	    -11.99432713	     -0.81747312	     16.92588054	      0.35137201	      0.00613260	     22.43184053	    -12.43813055	      0.00000000	     -0.45927467	     -2.07660700	      3.20976733	     -0.85291899	     -2.76188731	      3.41037779	     -0.75454235	     -5.04906227	      3.41037779	     -0.52490502	     -5.04906227	      2.80854642	     -0.42648246	     -4.23461700	      2.60793596	     -0.26242955	     -3.21666425	      2.40732550	     -3.28055303	    -23.49099375	     17.85176299	      0.00000000	      0.00000000	     -3.22170068	    -12.12972667	     -1.43787733	     43.01658096	     10.29981898	     37.74360637	    148.68075010	     89.66938570	    -15.88517521	     18.37506670	     31.42279699	     -0.41463913	     19.84401214	    149.85202618	     85.73267741	    -22.83153521	    -14.45825218
      1.66101695	     -2.21347710	      1.31577461	     94.21579647	      0.19293804	      0.55908928	      0.95112164	    -13.85950569	     -0.25192544	    -18.05318231	      2.81563031	      0.04914202	     30.42375768	     13.61971432	      0.00000000	    -11.76831538	     -0.64243303	     16.49914068	      0.35535532	      0.00620212	     22.45710874	    -12.30750945	      0.00000000	     -0.44539170	     -2.09526012	      3.27591311	     -0.82713693	     -2.78669596	      3.48065768	     -0.73173402	     -5.09441545	      3.48065768	     -0.50903817	     -5.09441545	      2.86642397	     -0.41359073	     -4.27265444	      2.66167940	     -0.25449682	     -3.24555792	      2.45693483	     -3.18138838	    -23.70200152	     18.21964593	      0.00000000	      0.00000000	     -3.05198781	    -12.17002212	     -1.38402077	     42.81670311	     10.20578797	     37.91594963	    148.41127297	     89.64414866	    -17.77034547	     17.25827550	     31.50708593	     -0.44958315	     19.95858590	    149.85366718	     85.54337339	    -22.85215827	    -15.29706610
